<svg width="687" height="254" viewBox="0 0 687 254" fill="none" xmlns="http://www.w3.org/2000/svg">
<path d="M150.7 93.8H156.7C170.433 93.8 177.3 100.4 177.3 113.6V192H154.5V116.8C154.5 114.667 154.1 113.267 153.3 112.6C152.5 111.8 151.033 111.4 148.9 111.4H142.9C138.767 111.4 136.7 113.6 136.7 118V192H114.1V93.8H136.5V102.8C138.367 96.8 143.1 93.8 150.7 93.8ZM233.383 93.8H255.783V192H232.983V183.6C230.983 189.2 226.383 192 219.183 192H212.983C199.383 192 192.583 185.4 192.583 172.2V113.6C192.583 100.4 199.383 93.8 212.983 93.8H219.183C227.049 93.8 231.783 97 233.383 103.4V93.8ZM220.783 174.4H226.783C230.916 174.4 232.983 172.2 232.983 167.8V118C232.983 113.6 230.916 111.4 226.783 111.4H220.783C218.649 111.4 217.183 111.8 216.383 112.6C215.583 113.267 215.183 114.667 215.183 116.8V169C215.183 171.133 215.583 172.6 216.383 173.4C217.183 174.067 218.649 174.4 220.783 174.4ZM310.894 111.4H297.494V168.4C297.494 170.533 297.894 172 298.694 172.8C299.494 173.467 301.027 173.8 303.294 173.8H310.694V192H296.694C282.16 192 274.894 185.4 274.894 172.2V111.4H265.094V93.8H274.894V76.2H297.494V93.8H310.894V111.4ZM338.122 219.2H324.722V201.8H334.922C340.789 201.8 344.389 199.467 345.722 194.8L347.322 188.4H336.522L314.122 93.8H337.522L351.522 169.4L364.522 93.8H387.322L365.322 198C361.855 212.133 352.789 219.2 338.122 219.2ZM436.913 93.4H440.513V113H432.113C423.713 113 419.513 117.8 419.513 127.4V192H396.913V93.8H419.313V106.4C420.379 102.533 422.446 99.4 425.513 97C428.579 94.6 432.379 93.4 436.913 93.4ZM470.837 93.8H492.038C506.438 93.8 513.638 100.4 513.638 113.6V149.4H471.038V169.6C471.038 171.733 471.371 173.2 472.038 174C472.838 174.667 474.371 175 476.638 175H485.838C487.971 175 489.438 174.667 490.238 174C491.038 173.2 491.438 171.733 491.438 169.6V162.2H513.438V172.2C513.438 185.4 506.171 192 491.638 192H470.837C456.304 192 449.038 185.4 449.038 172.2V113.6C449.038 100.4 456.304 93.8 470.837 93.8ZM471.038 134.8H491.838V116C491.838 113.867 491.438 112.467 490.638 111.8C489.838 111 488.371 110.6 486.238 110.6H476.638C474.504 110.6 473.038 111 472.238 111.8C471.438 112.467 471.038 113.867 471.038 116V134.8Z" fill="white"/>
<path d="M25.5 148L16.5 191.5H39.5L44 165.5H71.5L76 191.5H99.5L90.5 148H25.5Z" fill="white"/>
<path d="M73 65H42L29.5 129H49.5L57.5 87.5L65 129H87L73 65Z" fill="#CF9236"/>
<path d="M516.5 232H4.61155L0 251L516.5 254V232Z" fill="#CF9236"/>
<path d="M45.3888 61.0809L56.0027 61.0664L58.9852 54.0248L55.0032 54.0247L50.6631 58.6001L48.035 54.0413L40.5026 54.0515L45.3888 61.0809Z" fill="#CF9236"/>
<path d="M48.4785 61.0664L68.9311 61.0664L73.1181 54.0247L66.2704 54.034L63.5916 58.6L58.9785 54.034L54.9785 54.0247L48.4785 61.0664Z" fill="#CF9236"/>
</svg>
